<svg width="720" height="720" viewBox="0 0 720 720" fill="none" xmlns="http://www.w3.org/2000/svg">
<path d="M719.908 359.516L687.658 327.265C685.121 300.812 679.324 275.083 670.627 250.26L668.997 254.244C667.002 247.724 664.648 241.015 662.111 234.495C659.393 227.974 656.497 221.63 653.054 215.651L656.861 217.281C645.627 193.729 631.315 171.443 614.465 150.969L614.455 105.313H568.799C548.326 88.4639 526.039 74.3292 502.304 62.9172L492.7 39.7239L469.507 49.328C445.408 40.8124 420.225 35.016 394.496 32.4787L392.324 32.2964L360.434 0.041748L328.366 32.1098L326.194 32.292C300.464 35.0108 275.282 40.6254 251.183 49.1414L227.99 39.5372L218.386 62.7306C194.651 74.1472 172.364 88.2772 151.891 105.127L106.23 105.132V151.153C89.3803 171.626 75.2456 193.913 63.8336 217.465L40.6402 227.069L50.2444 250.444C41.5465 275.267 35.7497 300.996 33.2137 327.449L0.959045 359.517L33.2097 391.768C35.7461 418.404 41.7253 444.132 50.2404 468.591L40.6415 492.143L64.1934 501.929C75.6101 525.664 89.9228 547.768 106.412 568.065V614.086H152.433C172.543 630.576 194.652 644.889 218.387 656.305L228.173 679.857L251.725 670.071C276.007 678.586 301.731 684.383 328.365 687.101L360.797 719.533L393.229 687.101C419.865 684.565 445.412 678.768 469.869 670.071L493.421 679.857L503.208 656.305C526.942 644.888 549.046 630.758 569.161 614.269H615.182L615.177 567.878C631.666 547.769 645.98 525.482 657.396 501.925L680.948 492.139L671.161 468.764C679.859 444.305 685.656 418.576 688.192 391.941L719.908 359.516ZM576.762 179.049C594.158 199.888 608.288 222.899 618.98 247.539L422.94 328.711C421.493 325.632 419.68 322.731 417.868 320.013C422.576 315.482 448.305 292.111 484.179 289.753L485.81 289.57V287.94C485.81 287.758 486.534 268.372 491.607 257.503C492.878 258.409 495.049 259.675 498.492 261.852L501.029 263.482L501.211 260.581C501.211 260.216 505.56 216.554 567.523 176.69L576.762 179.049ZM472.584 100.961C497.224 111.649 520.054 125.784 540.71 143.18L543.064 152.06C503.381 213.847 459.72 218.196 459.173 218.372L456.272 218.554L457.902 221.091C460.074 224.534 461.345 226.705 462.251 227.976C451.382 233.232 431.991 233.773 431.814 233.773H430.184L430.001 235.404C427.647 271.461 404.272 297.008 399.741 301.716C397.023 299.903 394.304 298.273 391.408 296.825L472.584 100.961ZM377.824 83.5652L385.975 78.857C412.97 81.2111 439.246 87.5548 464.246 97.5183L383.074 293.558C379.814 292.47 376.553 291.563 373.288 291.022C373.47 284.319 375.1 249.71 398.834 222.715L399.923 221.444L398.834 220.174C398.652 219.991 385.428 205.862 381.438 194.444C383.251 194.08 385.787 193.538 389.412 192.632L392.313 191.908L390.319 189.736C389.959 189.377 362.24 155.315 377.824 83.5639L377.824 83.5652ZM334.882 78.857L343.033 83.5652C358.617 155.315 330.892 189.377 330.533 189.743L328.538 191.914L331.439 192.638C335.064 193.545 337.783 194.086 339.413 194.451C335.429 205.868 322.2 219.998 322.017 220.18L320.929 221.451L322.017 222.722C345.752 249.717 347.381 284.509 347.564 291.029C344.486 291.57 341.22 292.476 338.142 293.565L256.97 97.3383C281.975 87.5519 308.063 81.3957 334.882 78.8597L334.882 78.857ZM179.962 143.174C200.8 125.778 223.811 111.466 248.634 100.778L329.806 296.818C326.728 298.266 323.827 300.079 321.108 301.891C316.577 297.183 293.207 271.454 290.848 235.579L290.666 233.949H289.035C288.853 233.949 269.467 233.225 258.598 228.152C259.504 226.881 260.77 224.709 262.947 221.267L264.577 218.73L261.676 218.548C261.312 218.548 217.649 214.199 177.785 152.236L179.962 143.174ZM144.092 179.049L152.973 176.695C214.759 216.377 219.109 260.039 219.285 260.585L219.467 263.487L222.003 261.856C225.446 259.684 227.618 258.414 228.889 257.507C234.144 268.377 234.686 287.767 234.686 287.945V289.575L236.316 289.757C272.373 292.111 298.103 315.487 302.628 320.017C300.816 322.736 299.185 325.455 297.737 328.533L101.871 247.356C112.74 222.716 126.876 199.886 144.089 179.049L144.092 179.049ZM98.4311 255.689L294.471 336.861C293.383 340.121 292.476 343.382 291.935 346.647C285.773 346.647 250.804 345.017 223.628 321.101L222.357 320.012L221.086 321.101C220.904 321.283 206.774 334.507 195.357 338.497C194.992 337.049 194.451 334.512 193.545 330.523L192.821 327.622L190.649 329.616C190.466 329.799 169.633 346.83 126.509 346.83C113.279 346.83 99.1486 345.2 84.4726 341.939L79.7644 333.788C82.306 306.965 88.4674 280.695 98.431 255.689L98.4311 255.689ZM79.7697 385.058L84.478 376.907C99.1553 373.647 113.285 372.017 126.514 372.017C169.634 372.017 190.29 389.047 190.654 389.23L192.826 391.225L193.55 388.324C194.456 384.339 194.998 381.803 195.362 380.35C206.779 384.334 220.909 397.563 221.092 397.746L222.363 398.834L223.633 397.746C250.993 373.828 285.961 372.382 291.94 372.199C292.482 375.459 293.388 378.72 294.476 381.985L98.4231 463.147C88.4595 438.141 82.2978 411.871 79.7618 385.059L79.7697 385.058ZM144.092 539.792C126.696 519.136 112.566 496.125 101.874 471.485L297.914 390.318C299.362 393.219 300.992 396.115 302.804 398.834C298.096 403.365 272.367 426.735 236.492 429.094L234.862 429.276V430.907C234.862 431.089 234.138 450.475 229.065 461.344C227.794 460.438 225.623 459.172 222.18 456.995L219.643 455.365L219.461 458.266C219.461 458.63 214.93 502.474 153.149 542.156L144.092 539.792ZM248.634 618.068C223.994 607.38 200.8 593.062 179.962 575.672L177.608 566.791C217.29 505.005 260.952 500.655 261.498 500.479L264.399 500.297L262.769 497.761C260.597 494.318 259.326 492.146 258.42 490.875C269.29 485.62 288.68 485.078 288.857 485.078H290.488L290.67 483.448C293.024 447.391 316.399 421.844 320.93 417.136C323.649 418.949 326.545 420.761 329.628 422.209L248.634 618.068ZM343.03 635.276L334.879 639.984C308.061 637.63 281.972 631.286 256.967 621.505L338.139 425.465C341.217 426.554 344.3 427.278 347.561 428.002C347.378 434.705 345.748 469.314 322.014 496.308L320.925 497.579L322.014 498.85C322.196 499.032 335.421 513.162 339.41 524.579C337.597 524.944 335.061 525.486 331.436 526.392L328.535 527.116L330.53 529.288C330.894 529.465 358.612 563.533 343.03 635.277L343.03 635.276ZM299.727 359.516C299.727 325.994 326.904 298.818 360.424 298.818C393.944 298.818 421.122 325.996 421.122 359.516C421.122 393.036 393.944 420.213 360.424 420.213C326.903 420.208 299.727 392.853 299.727 359.516ZM385.972 639.996L377.821 635.287C362.237 563.538 389.962 529.475 390.321 529.11L392.316 526.938L389.415 526.214C385.79 525.308 383.071 524.766 381.441 524.402C385.425 512.985 398.654 498.855 398.837 498.672L399.926 497.402L398.837 496.131C375.102 469.136 373.473 434.344 373.29 427.824C376.551 427.282 379.811 426.376 383.077 425.288L464.249 621.328C439.243 631.296 412.967 637.64 385.973 639.994L385.972 639.996ZM540.892 575.673C520.236 592.886 497.226 607.2 472.767 617.892L391.595 421.852C394.496 420.404 397.392 418.774 399.928 416.961C404.46 421.669 427.83 447.398 430.188 483.273L430.371 484.903H432.001C432.183 484.903 451.569 485.627 462.438 490.7C461.532 491.971 460.266 494.143 458.089 497.586L456.459 500.122L459.36 500.304C459.725 500.304 503.568 504.836 543.251 566.616L540.892 575.673ZM576.762 539.798L567.882 542.152C506.095 502.47 501.745 458.808 501.569 458.262L501.387 455.361L498.851 456.991C495.408 459.163 493.236 460.434 491.965 461.34C486.71 450.47 486.168 431.08 486.168 430.903V429.272L484.538 429.09C448.481 426.736 422.934 403.361 418.226 398.83C420.039 396.111 421.851 393.216 423.299 390.132L619.339 471.304C608.292 495.955 593.975 519.148 576.76 539.799L576.762 539.798ZM622.423 462.976L426.383 381.804C427.472 378.726 428.378 375.46 428.919 372.382C435.081 372.382 470.05 374.012 497.226 397.928L498.497 399.017L499.768 397.928C499.95 397.746 514.08 384.522 525.497 380.532C525.862 381.98 526.403 384.517 527.31 388.506L528.034 391.408L530.206 389.413C530.388 389.23 551.221 372.199 594.345 372.199C607.575 372.199 621.705 373.83 636.381 377.09L641.09 385.241C638.548 411.881 632.387 437.976 622.423 462.976L622.423 462.976ZM636.376 342.126C621.699 345.387 607.57 347.017 594.34 347.017C551.22 347.017 530.564 329.986 530.2 329.804L528.029 327.809L527.305 330.71C526.398 334.694 525.857 337.231 525.492 338.684C514.075 334.7 499.945 321.471 499.763 321.288L498.492 320.199L497.221 321.288C469.861 345.205 434.893 346.652 428.914 346.835C428.373 343.574 427.467 340.491 426.378 337.413L622.418 256.241C632.382 281.246 638.543 307.334 640.897 334.153L636.376 342.126Z" fill="black"/>
</svg>
