<svg width="832" height="974" viewBox="0 0 832 974" fill="none" xmlns="http://www.w3.org/2000/svg">
<path d="M479.719 13.6427C636.098 -32.6918 586.868 48.3936 699.808 141.063C714.288 153.662 717.184 170.022 722.976 254.003C728.767 337.984 763.518 340.88 812.749 491.467C861.979 642.055 809.853 891.103 685.329 821.601C560.805 752.099 572.388 943.229 479.719 966.396C387.05 989.564 77.1881 960.605 22.1658 856.352C-32.8564 752.099 30.8536 694.181 77.1881 642.055C123.523 589.928 117.731 393.007 111.939 340.88C106.147 288.754 152.482 245.315 259.63 225.044C366.779 204.773 323.34 59.9772 479.719 13.6427Z" fill="#F77A40"/>
<path d="M490.43 89.2243C630.451 47.7364 586.37 120.34 687.497 203.316C700.462 214.598 703.055 229.246 708.241 304.443C713.427 379.639 744.543 382.232 788.624 517.068C832.705 651.903 786.031 874.901 674.532 812.669C563.033 750.437 573.405 921.575 490.43 942.319C407.454 963.062 130.004 937.133 80.7369 843.785C31.47 750.437 88.5159 698.577 130.004 651.904C171.492 605.23 166.306 428.906 161.12 382.232C155.934 335.559 197.422 296.664 293.362 278.513C389.303 260.362 350.408 130.712 490.43 89.2243Z" fill="#FB9700"/>
<path d="M509.432 166.42C632.166 130.054 593.528 193.694 682.169 266.425C693.533 276.314 695.806 289.153 700.351 355.066C704.897 420.979 732.171 423.252 770.81 541.44C809.448 659.628 768.537 855.093 670.804 800.544C573.072 745.996 582.163 896.004 509.432 914.187C436.701 932.37 193.506 909.641 150.322 827.819C107.138 745.996 157.14 700.539 193.506 659.628C229.872 618.717 225.326 464.163 220.78 423.252C216.235 382.34 252.6 348.247 336.696 332.338C420.791 316.428 386.698 202.785 509.432 166.42Z" fill="#FCC97E"/>
</svg>
